<svg width="1920" height="1056" viewBox="0 0 1920 1056" fill="none" xmlns="http://www.w3.org/2000/svg">
<g clip-path="url(#clip0_2187_1456)">
<rect width="1920" height="1056" fill="url(#paint0_linear_2187_1456)"/>
<g clip-path="url(#clip1_2187_1456)">
<rect width="1920" height="1056" fill="url(#paint1_linear_2187_1456)"/>
<g opacity="0.5" filter="url(#filter0_f_2187_1456)">
<path d="M304.354 470.837C356.713 143.539 372.248 -126.093 560.944 -95.906C749.641 -65.7194 860.164 224.079 807.805 551.376C755.446 878.673 560.031 1119.53 371.335 1089.34C182.638 1059.16 251.995 798.134 304.354 470.837Z" fill="#72B9FF"/>
</g>
<g opacity="0.5" filter="url(#filter1_f_2187_1456)">
<path d="M253.437 274.938C369.205 345.037 512.841 319.642 441.823 436.927C370.806 554.212 219.386 592.464 103.618 522.365C-12.151 452.266 -48.4292 300.361 22.588 183.076C93.6052 65.7911 137.668 204.84 253.437 274.938Z" fill="#0C2D55"/>
</g>
<g opacity="0.5" filter="url(#filter2_f_2187_1456)">
<path d="M806.81 1090.19C667.74 1049.8 588.143 902.938 629.027 762.172C669.911 621.405 761.138 728.218 900.209 768.609C1039.28 809 1173.53 767.676 1132.65 908.442C1091.76 1049.21 945.881 1130.58 806.81 1090.19Z" fill="#B488FF"/>
</g>
<g opacity="0.5" filter="url(#filter3_f_2187_1456)">
<path d="M485.81 350.187C346.74 309.796 267.143 162.938 308.027 22.1717C348.911 -118.595 440.138 -11.7826 579.209 28.6088C718.28 69.0002 852.531 27.6755 811.647 168.442C770.763 309.208 624.881 390.579 485.81 350.187Z" fill="#B488FF"/>
</g>
<g opacity="0.5" filter="url(#filter4_f_2187_1456)">
<path d="M1434.81 372.187C1295.74 331.796 1216.14 184.938 1257.03 44.1717C1297.91 -96.5947 1389.14 10.2174 1528.21 50.6088C1667.28 91.0002 1801.53 49.6755 1760.65 190.442C1719.76 331.208 1573.88 412.579 1434.81 372.187Z" fill="#B488FF"/>
</g>
<g opacity="0.5" filter="url(#filter5_f_2187_1456)">
<path d="M1805.21 387.319C1948.99 514.081 1894.2 811.201 1682.83 1050.96C1471.45 1290.71 1183.54 1382.31 1039.76 1255.55C895.979 1128.79 1161.84 1017.75 1373.21 777.991C1584.58 538.236 1661.43 260.558 1805.21 387.319Z" fill="#BFC7EC"/>
</g>
<g opacity="0.5" filter="url(#filter6_f_2187_1456)">
<path d="M573.187 -87.1489C683.486 -243.916 984.813 -221.901 1246.22 -37.978C1507.63 145.945 1630.12 422.128 1519.82 578.895C1409.52 735.662 1270.11 483.522 1008.7 299.599C747.298 115.676 462.887 69.6177 573.187 -87.1489Z" fill="#BFC7EC"/>
</g>
</g>
<g filter="url(#filter7_f_2187_1456)">
<path d="M1256.82 151.642C676.086 147.198 204.408 260.766 205.687 93.6286C206.966 -73.5086 678.784 -205.398 1259.52 -200.954C1840.26 -196.51 2310 -57.416 2308.73 109.721C2307.45 276.858 1837.56 156.085 1256.82 151.642Z" fill="#0C2D55"/>
</g>
<g filter="url(#filter8_f_2187_1456)">
<path d="M699.824 121.642C119.086 117.198 -352.592 230.766 -351.313 63.6286C-350.034 -103.509 121.784 -235.398 702.522 -230.954C1283.26 -226.51 1753 -87.416 1751.73 79.7212C1750.45 246.858 1280.56 126.085 699.824 121.642Z" fill="#0C2D55"/>
</g>
<g filter="url(#filter9_f_2187_1456)">
<path d="M1738.82 1091.64C1158.09 1087.2 686.408 1200.77 687.687 1033.63C688.966 866.491 1160.78 734.602 1741.52 739.046C2322.26 743.49 2792 882.584 2790.73 1049.72C2789.45 1216.86 2319.56 1096.09 1738.82 1091.64Z" fill="#0C2D55"/>
</g>
<g filter="url(#filter10_f_2187_1456)">
<path d="M1181.82 1061.64C601.086 1057.2 129.408 1170.77 130.687 1003.63C131.966 836.491 603.784 704.602 1184.52 709.046C1765.26 713.49 2235 852.584 2233.73 1019.72C2232.45 1186.86 1762.56 1066.09 1181.82 1061.64Z" fill="#0C2D55"/>
</g>
</g>
<defs>
<filter id="filter0_f_2187_1456" x="-152.554" y="-498.217" width="1373.36" height="1990.11" filterUnits="userSpaceOnUse" color-interpolation-filters="sRGB">
<feFlood flood-opacity="0" result="BackgroundImageFix"/>
<feBlend mode="normal" in="SourceGraphic" in2="BackgroundImageFix" result="shape"/>
<feGaussianBlur stdDeviation="200" result="effect1_foregroundBlur_2187_1456"/>
</filter>
<filter id="filter1_f_2187_1456" x="-413.745" y="-262.297" width="1274.48" height="1219.74" filterUnits="userSpaceOnUse" color-interpolation-filters="sRGB">
<feFlood flood-opacity="0" result="BackgroundImageFix"/>
<feBlend mode="normal" in="SourceGraphic" in2="BackgroundImageFix" result="shape"/>
<feGaussianBlur stdDeviation="200" result="effect1_foregroundBlur_2187_1456"/>
</filter>
<filter id="filter2_f_2187_1456" x="218.303" y="291.695" width="1321.8" height="1208.85" filterUnits="userSpaceOnUse" color-interpolation-filters="sRGB">
<feFlood flood-opacity="0" result="BackgroundImageFix"/>
<feBlend mode="normal" in="SourceGraphic" in2="BackgroundImageFix" result="shape"/>
<feGaussianBlur stdDeviation="200" result="effect1_foregroundBlur_2187_1456"/>
</filter>
<filter id="filter3_f_2187_1456" x="-102.697" y="-448.305" width="1321.8" height="1208.85" filterUnits="userSpaceOnUse" color-interpolation-filters="sRGB">
<feFlood flood-opacity="0" result="BackgroundImageFix"/>
<feBlend mode="normal" in="SourceGraphic" in2="BackgroundImageFix" result="shape"/>
<feGaussianBlur stdDeviation="200" result="effect1_foregroundBlur_2187_1456"/>
</filter>
<filter id="filter4_f_2187_1456" x="846.303" y="-426.305" width="1321.8" height="1208.85" filterUnits="userSpaceOnUse" color-interpolation-filters="sRGB">
<feFlood flood-opacity="0" result="BackgroundImageFix"/>
<feBlend mode="normal" in="SourceGraphic" in2="BackgroundImageFix" result="shape"/>
<feGaussianBlur stdDeviation="200" result="effect1_foregroundBlur_2187_1456"/>
</filter>
<filter id="filter5_f_2187_1456" x="598.931" y="-44.4469" width="1686.48" height="1757.04" filterUnits="userSpaceOnUse" color-interpolation-filters="sRGB">
<feFlood flood-opacity="0" result="BackgroundImageFix"/>
<feBlend mode="normal" in="SourceGraphic" in2="BackgroundImageFix" result="shape"/>
<feGaussianBlur stdDeviation="200" result="effect1_foregroundBlur_2187_1456"/>
</filter>
<filter id="filter6_f_2187_1456" x="148.781" y="-591.714" width="1811.58" height="1619.78" filterUnits="userSpaceOnUse" color-interpolation-filters="sRGB">
<feFlood flood-opacity="0" result="BackgroundImageFix"/>
<feBlend mode="normal" in="SourceGraphic" in2="BackgroundImageFix" result="shape"/>
<feGaussianBlur stdDeviation="200" result="effect1_foregroundBlur_2187_1456"/>
</filter>
<filter id="filter7_f_2187_1456" x="-194.315" y="-601.063" width="2903.04" height="1199.04" filterUnits="userSpaceOnUse" color-interpolation-filters="sRGB">
<feFlood flood-opacity="0" result="BackgroundImageFix"/>
<feBlend mode="normal" in="SourceGraphic" in2="BackgroundImageFix" result="shape"/>
<feGaussianBlur stdDeviation="200" result="effect1_foregroundBlur_2187_1456"/>
</filter>
<filter id="filter8_f_2187_1456" x="-751.315" y="-631.063" width="2903.04" height="1199.04" filterUnits="userSpaceOnUse" color-interpolation-filters="sRGB">
<feFlood flood-opacity="0" result="BackgroundImageFix"/>
<feBlend mode="normal" in="SourceGraphic" in2="BackgroundImageFix" result="shape"/>
<feGaussianBlur stdDeviation="200" result="effect1_foregroundBlur_2187_1456"/>
</filter>
<filter id="filter9_f_2187_1456" x="287.685" y="338.937" width="2903.04" height="1199.04" filterUnits="userSpaceOnUse" color-interpolation-filters="sRGB">
<feFlood flood-opacity="0" result="BackgroundImageFix"/>
<feBlend mode="normal" in="SourceGraphic" in2="BackgroundImageFix" result="shape"/>
<feGaussianBlur stdDeviation="200" result="effect1_foregroundBlur_2187_1456"/>
</filter>
<filter id="filter10_f_2187_1456" x="-269.315" y="308.937" width="2903.04" height="1199.04" filterUnits="userSpaceOnUse" color-interpolation-filters="sRGB">
<feFlood flood-opacity="0" result="BackgroundImageFix"/>
<feBlend mode="normal" in="SourceGraphic" in2="BackgroundImageFix" result="shape"/>
<feGaussianBlur stdDeviation="200" result="effect1_foregroundBlur_2187_1456"/>
</filter>
<linearGradient id="paint0_linear_2187_1456" x1="1920" y1="0.000100705" x2="61.4999" y2="951" gradientUnits="userSpaceOnUse">
<stop offset="0.962651" stop-color="#0C2D55"/>
</linearGradient>
<linearGradient id="paint1_linear_2187_1456" x1="-1.41745e-05" y1="511" x2="1867.5" y2="539.5" gradientUnits="userSpaceOnUse">
<stop offset="0.0336538" stop-color="#0C2D55"/>
<stop offset="0.331731" stop-color="#88ACCF"/>
<stop offset="0.653846" stop-color="#BCD2E7"/>
<stop offset="0.774038" stop-color="#AAB4EB"/>
</linearGradient>
<clipPath id="clip0_2187_1456">
<rect width="1920" height="1056" fill="white"/>
</clipPath>
<clipPath id="clip1_2187_1456">
<rect width="1920" height="1056" fill="white"/>
</clipPath>
</defs>
</svg>
